<svg width="3930" height="2762" viewBox="0 0 3930 2762" fill="none" xmlns="http://www.w3.org/2000/svg">
<path fill-rule="evenodd" clip-rule="evenodd" d="M207.398 2169.31C367.378 2032.04 353.583 1642.05 270.624 1657.28C211.804 1668.11 182.299 1927.91 207.398 2169.31ZM219.372 2263.96C251.368 2437.74 316.031 2577.89 425.527 2557.67C551.212 2534.49 624.496 2346.82 660.133 2105.32C685.615 2078.4 768.383 2137.89 753.63 2237.33C713.108 2512.94 566.156 2705.97 395.159 2737.48C178.659 2777.33 46.8427 2527.88 11.6853 2246.91C-30.4652 1928.38 39.4664 1572.79 258.649 1532.36C568.838 1475.17 550.637 2186.27 219.372 2263.96Z" fill="url(#paint0_linear_259_27)"/>
<path fill-rule="evenodd" clip-rule="evenodd" d="M1021.67 1922.45C1015.92 1876.46 1010.18 1830.58 1004.62 1784.69C995.135 1703.46 985.747 1622.22 976.263 1541.08C950.206 1534.76 920.318 1537.54 901.638 1540.98C762.637 1566.66 835.729 2443.39 948.099 2422.7C1017.55 2409.76 1030.39 2164.24 1021.77 1922.54L1021.67 1922.45ZM1518.28 2096.41C1495.58 2258.12 1419.61 2520.98 1277.93 2547.04C1205.7 2560.36 1153.97 2489.75 1112.58 2370.2C1098.31 2502.78 1029.53 2609.4 941.202 2625.69C604.381 2687.77 464.613 1494.33 884.298 1416.93C913.708 1411.56 938.232 1409.65 960.648 1411.08C930.281 1126.38 908.247 856.805 902.787 691.939C898.093 546.232 1043.9 422.655 1078.09 488.18C1098.6 899.051 1169.96 1541.18 1225.62 1948.41C1256.85 2177.65 1266.62 2336.19 1301.4 2329.68C1314.81 2327.19 1331.76 2299.21 1343.36 2272.2C1372.57 2205.91 1405.72 2100.34 1424.78 1964.12C1447.68 1937.77 1533.13 1996.78 1518.28 2096.22V2096.41Z" fill="url(#paint1_linear_259_27)"/>
<path fill-rule="evenodd" clip-rule="evenodd" d="M1600.57 1912.58C1760.36 1775.3 1746.56 1385.22 1663.7 1400.55C1604.88 1411.37 1575.37 1671.17 1600.57 1912.58ZM1612.35 2007.23C1644.44 2181 1708.92 2321.06 1818.51 2300.94C1944.29 2277.76 2017.48 2090.09 2053.11 1848.59C2078.59 1821.67 2161.36 1881.16 2146.61 1980.6C2106.09 2256.3 1959.23 2449.23 1788.14 2480.85C1571.54 2520.7 1439.82 2271.24 1404.67 1990.18C1362.51 1671.75 1432.45 1316.05 1651.63 1275.63C1961.82 1218.44 1943.62 1929.63 1612.26 2007.32L1612.35 2007.23Z" fill="url(#paint2_linear_259_27)"/>
<path fill-rule="evenodd" clip-rule="evenodd" d="M2446.35 1162.3C2537.55 1131.74 2636.89 1190.85 2661.8 1415.68C2691.4 1711.5 2715.83 2069.21 2761.33 2060.78C2774.75 2058.29 2791.7 2030.31 2803.2 2003.2C2832.41 1937.01 2865.56 1831.35 2884.62 1695.22C2907.42 1668.87 2992.87 1727.79 2978.12 1827.23C2955.32 1989.03 2879.45 2251.89 2737.77 2278.04C2529.31 2316.46 2499.9 1782.78 2479.69 1463.01C2476.34 1399.97 2464.17 1394.03 2450.86 1396.43C2416.08 1402.85 2398.55 1818.03 2375.37 2156.77C2364.74 2294.23 2335.52 2360.43 2287.33 2369.34C2212.42 2383.04 2135.11 2278.43 2093.06 2095.55C2040.27 1884.03 2015.56 1614.84 2007.99 1408.98C2002.43 1244.11 2178.7 1120.34 2183.78 1207.9C2197.28 1415.59 2217.02 1763.04 2266.74 2033C2275.07 1553.25 2318.75 1205.12 2446.26 1162.3H2446.35Z" fill="url(#paint3_linear_259_27)"/>
<path d="M1784.3 2705.1C1784.3 2735.76 1759.4 2761.24 1728.26 2761.24C1697.13 2761.24 1672.03 2735.76 1672.03 2705.1C1672.03 2674.45 1697.03 2648.97 1728.26 2648.97C1759.49 2648.97 1784.3 2673.97 1784.3 2705.1Z" fill="#B2D235"/>
<path d="M2016.61 2585.55C2003.58 2576.07 1988.26 2568.4 1971.49 2568.4C1937.87 2568.4 1911.43 2594.27 1911.43 2628.37C1911.43 2662.47 1936.91 2688.82 1972.93 2688.82C1988.26 2688.82 2005.12 2682.59 2016.61 2672.05V2745.91C1997.36 2755.59 1976.28 2759.8 1955.21 2759.8C1882.3 2759.8 1821.28 2705.58 1821.28 2631.25C1821.28 2552.02 1881.83 2497.32 1959.04 2497.32C1979.25 2497.32 1999.37 2502.11 2016.61 2511.69V2585.55Z" fill="#B2D235"/>
<path d="M2144.69 2628.85C2144.69 2659.98 2165.38 2684.03 2200.83 2684.03C2236.27 2684.03 2257.06 2660.08 2257.06 2628.85C2257.06 2597.62 2236.37 2573.19 2200.83 2573.19C2165.29 2573.19 2144.69 2598.58 2144.69 2628.85ZM2349.12 2628.85C2349.12 2712.29 2280.05 2759.8 2200.83 2759.8C2121.61 2759.8 2052.54 2712.77 2052.54 2628.85C2052.54 2544.93 2121.7 2497.32 2200.83 2497.32C2279.96 2497.32 2349.12 2544.84 2349.12 2628.85Z" fill="#B2D235"/>
<path d="M2498.37 2705.1C2498.37 2735.76 2473.47 2761.24 2442.24 2761.24C2411.01 2761.24 2386.2 2735.76 2386.2 2705.1C2386.2 2674.45 2411.1 2648.97 2442.24 2648.97C2473.37 2648.97 2498.37 2673.97 2498.37 2705.1Z" fill="#B2D235"/>
<path d="M2638.91 2505.46V2636.99C2638.91 2668.13 2646.57 2690.16 2682.69 2690.16C2718.8 2690.16 2726.27 2668.13 2726.27 2636.99V2505.46H2813.64V2653.76C2813.64 2734.9 2756.55 2759.8 2682.69 2759.8C2608.83 2759.8 2551.64 2734.9 2551.64 2653.76V2505.46H2638.91Z" fill="#B2D235"/>
<path d="M2956.57 2594.27L3047.29 2505.46H3166.75L3043.46 2619.27L3174.41 2751.76H3051.98L2956.47 2651.46V2751.76H2869.2V2353.43H2956.47V2594.36L2956.57 2594.27Z" fill="#B2D235"/>
<path d="M2724.94 28.0684V417.769C2736.14 417.194 2747.45 416.907 2759.04 416.907C2770.63 416.907 2781.84 417.194 2793.14 417.769V28.0684C2793.14 12.5494 2777.91 0 2759.04 0C2740.17 0 2724.94 12.5494 2724.94 28.0684Z" fill="url(#paint4_linear_259_27)"/>
<path d="M2407.08 220.907C2389.55 227.996 2381.12 247.922 2388.21 265.357L2475 480.228C2495.5 470.649 2516.29 462.123 2538.13 454.651L2451.63 239.875C2444.54 222.344 2424.61 213.914 2407.18 220.907H2407.08Z" fill="url(#paint5_linear_259_27)"/>
<path d="M3080.82 244.378L2990.2 458.1C3011.66 466.243 3032.83 475.152 3052.94 485.402L3143.57 271.009C3150.75 253.957 3142.8 234.415 3125.84 227.134L3124.7 226.655C3107.64 219.47 3088.01 227.422 3080.82 244.378Z" fill="url(#paint6_linear_259_27)"/>
<path d="M1931.26 253.956C1917.95 267.272 1917.95 288.731 1931.26 302.046L2265.3 636.376C2280.63 619.325 2296.63 603.327 2313.68 587.999L1979.35 253.956C1966.04 240.641 1944.58 240.736 1931.26 253.956Z" fill="url(#paint7_linear_259_27)"/>
<path d="M3538.63 253.957L3204.3 588C3221.35 603.327 3237.35 619.325 3252.68 636.377L3586.72 302.047C3600.04 288.731 3599.94 267.273 3586.72 253.957C3573.41 240.641 3551.95 240.641 3538.63 253.957Z" fill="url(#paint8_linear_259_27)"/>
<path d="M1893.9 725.659C1886.52 742.998 1894.67 763.02 1912.01 770.3L2130.9 863.031C2138.37 841.19 2146.9 820.402 2156.86 799.901L1938.64 707.458C1921.3 700.081 1901.28 708.224 1894 725.563L1893.9 725.659Z" fill="url(#paint9_linear_259_27)"/>
<path d="M3585.57 721.156L3366.01 809.96C3375.2 830.46 3383.44 851.536 3390.53 873.377L3611.15 784.574C3628.68 777.485 3637.11 757.655 3630.12 740.124C3623.03 722.593 3603.1 714.163 3585.57 721.252V721.156Z" fill="url(#paint10_linear_259_27)"/>
<path d="M3422.91 1047.63C3423.58 1058.84 3423.96 1070.14 3423.96 1081.74C3423.96 1093.33 3423.58 1104.53 3422.91 1115.84H3895.47C3914.35 1115.84 3929.58 1100.61 3929.58 1081.74C3929.58 1062.86 3914.35 1047.63 3895.47 1047.63H3422.91Z" fill="url(#paint11_linear_259_27)"/>
<path d="M3380.66 1317.97C3372.52 1339.43 3363.61 1360.22 3353.07 1380.33L3579.54 1476.13C3596.88 1483.51 3616.9 1475.36 3624.18 1458.03C3631.55 1440.69 3623.41 1420.66 3606.07 1413.38L3380.66 1317.87V1317.97Z" fill="url(#paint12_linear_259_27)"/>
<path d="M3239.94 1527C3228.64 1539.45 3216.85 1551.04 3204.3 1562.25L3450.12 1805.48C3459.89 1815.15 3475.69 1815.15 3485.47 1805.48C3495.24 1795.8 3495.24 1780.09 3485.47 1770.42L3239.94 1527Z" fill="url(#paint13_linear_259_27)"/>
<path d="M2729.15 468.637C2417.62 483.39 2164.24 734.665 2146.23 1046.1C2144.22 1080.11 2145.18 1113.44 2148.53 1146.11C2150.54 1145.82 2152.55 1145.63 2154.47 1145.54C2189.82 1144 2215.01 1168.24 2217.22 1205.98L2220.19 1252.83C2222.87 1294.21 2225.74 1339.62 2229.09 1387.9C2229.29 1390.68 2230.05 1393.36 2231.49 1395.66C2237.24 1405.34 2243.18 1414.72 2249.4 1424.02C2258.03 1436.76 2277.57 1432.83 2280.44 1417.69C2313.3 1245.26 2363.78 1154.45 2435.44 1130.4C2453.64 1124.27 2471.94 1121.3 2489.85 1121.3C2519.26 1121.3 2547.62 1129.44 2572.81 1145.54C2618.22 1174.56 2676.27 1244.3 2694.86 1411.95C2699.84 1461.09 2704.53 1511.58 2709.23 1561.87C2712.77 1599.13 2716.51 1639.18 2720.53 1679.7C2721.39 1688.13 2728.19 1694.83 2736.72 1695.12C2744.1 1695.41 2751.47 1695.5 2758.85 1695.5C2790.37 1695.5 2821.31 1693.11 2851.58 1688.51C2882.33 1683.91 2912.32 1676.92 2941.34 1667.92C3191.18 1590.22 3372.62 1357.06 3372.62 1081.64C3372.62 732.845 3081.49 451.873 2728.96 468.542L2729.15 468.637ZM2742.28 587.617C2482.76 596.334 2273.54 805.554 2264.92 1064.97C2264.63 1074.26 2257.16 1081.74 2247.87 1081.74C2238.39 1081.74 2230.53 1073.88 2230.82 1064.4C2239.82 786.682 2463.89 562.518 2741.7 553.513C2751.19 553.226 2759.04 561.081 2759.04 570.565C2759.04 579.857 2751.57 587.329 2742.28 587.617Z" fill="url(#paint14_linear_259_27)"/>
<defs>
<linearGradient id="paint0_linear_259_27" x1="-811.486" y1="1104.26" x2="3055.29" y2="3367.88" gradientUnits="userSpaceOnUse">
<stop offset="0.01" stop-color="#278002"/>
<stop offset="1" stop-color="#75C62A"/>
</linearGradient>
<linearGradient id="paint1_linear_259_27" x1="-901.754" y1="1258.44" x2="2964.47" y2="3522.46" gradientUnits="userSpaceOnUse">
<stop offset="0.01" stop-color="#278002"/>
<stop offset="1" stop-color="#75C62A"/>
</linearGradient>
<linearGradient id="paint2_linear_259_27" x1="-811.486" y1="1103.95" x2="3055.13" y2="3367.66" gradientUnits="userSpaceOnUse">
<stop offset="0.01" stop-color="#278002"/>
<stop offset="1" stop-color="#75C62A"/>
</linearGradient>
<linearGradient id="paint3_linear_259_27" x1="-729.113" y1="963.674" x2="3137.78" y2="3227.1" gradientUnits="userSpaceOnUse">
<stop offset="0.01" stop-color="#278002"/>
<stop offset="1" stop-color="#75C62A"/>
</linearGradient>
<linearGradient id="paint4_linear_259_27" x1="20508.7" y1="-830.082" x2="19324.8" y2="10188.8" gradientUnits="userSpaceOnUse">
<stop stop-color="#FFE739"/>
<stop offset="1" stop-color="#DE9700"/>
</linearGradient>
<linearGradient id="paint5_linear_259_27" x1="17613.2" y1="-5483.12" x2="10554.9" y2="12938.1" gradientUnits="userSpaceOnUse">
<stop stop-color="#FFE739"/>
<stop offset="1" stop-color="#DE9700"/>
</linearGradient>
<linearGradient id="paint6_linear_259_27" x1="10307.5" y1="-2280.31" x2="3108.55" y2="16049.2" gradientUnits="userSpaceOnUse">
<stop stop-color="#FFE739"/>
<stop offset="1" stop-color="#DE9700"/>
</linearGradient>
<linearGradient id="paint7_linear_259_27" x1="9944.41" y1="-4704.99" x2="3554.4" y2="5004.17" gradientUnits="userSpaceOnUse">
<stop stop-color="#FFE739"/>
<stop offset="1" stop-color="#DE9700"/>
</linearGradient>
<linearGradient id="paint8_linear_259_27" x1="4116.78" y1="-236.437" x2="-2354.7" y2="9598.3" gradientUnits="userSpaceOnUse">
<stop stop-color="#FFE739"/>
<stop offset="1" stop-color="#DE9700"/>
</linearGradient>
<linearGradient id="paint9_linear_259_27" x1="16284.6" y1="-16713.1" x2="-32.7714" y2="-1939.47" gradientUnits="userSpaceOnUse">
<stop stop-color="#FFE739"/>
<stop offset="1" stop-color="#DE9700"/>
</linearGradient>
<linearGradient id="paint10_linear_259_27" x1="7012.81" y1="-5292.17" x2="-10726.3" y2="10347.7" gradientUnits="userSpaceOnUse">
<stop stop-color="#FFE739"/>
<stop offset="1" stop-color="#DE9700"/>
</linearGradient>
<linearGradient id="paint11_linear_259_27" x1="5075.97" y1="-16377.4" x2="-10843.8" y2="-13120.8" gradientUnits="userSpaceOnUse">
<stop stop-color="#FFE739"/>
<stop offset="1" stop-color="#DE9700"/>
</linearGradient>
<linearGradient id="paint12_linear_259_27" x1="11343" y1="-10513.2" x2="-5725.41" y2="4734.41" gradientUnits="userSpaceOnUse">
<stop stop-color="#FFE739"/>
<stop offset="1" stop-color="#DE9700"/>
</linearGradient>
<linearGradient id="paint13_linear_259_27" x1="10326.6" y1="-4855.49" x2="3975.4" y2="4703.02" gradientUnits="userSpaceOnUse">
<stop stop-color="#FFE739"/>
<stop offset="1" stop-color="#DE9700"/>
</linearGradient>
<linearGradient id="paint14_linear_259_27" x1="3178.82" y1="633.982" x2="2350.18" y2="1518.95" gradientUnits="userSpaceOnUse">
<stop stop-color="#FFE739"/>
<stop offset="1" stop-color="#DE9700"/>
</linearGradient>
</defs>
</svg>
