<svg width="26" height="26" viewBox="0 0 26 26" fill="none" xmlns="http://www.w3.org/2000/svg">
    <path d="M10.9202 14.1934L10.4335 14.6807L9.26019 13.5088L9.7469 13.0215C9.99452 12.7736 10.223 12.626 10.4323 12.5789C10.6458 12.5275 10.8552 12.6043 11.0604 12.8092C11.2656 13.0142 11.3554 13.2362 11.3299 13.4755C11.3044 13.7062 11.1679 13.9455 10.9202 14.1934Z" fill="#205E1C"/>
    <path fill-rule="evenodd" clip-rule="evenodd" d="M24.9809 0.626395C25.1928 0.640692 25.3594 0.808054 25.3745 1.01999L25.9994 10.9793C26.0061 11.1012 25.9641 11.2173 25.8766 11.3039L11.3035 25.8779C11.2244 25.9561 11.1176 26.0007 11.0057 26.0007C10.8939 26.0007 10.7871 25.9578 10.708 25.8779L0.122999 15.2903C-0.0409995 15.1272 -0.0409995 14.8597 0.122999 14.6958L14.6961 0.124308C14.7836 0.0393658 14.898 -0.00941321 15.0199 0.00151995L24.9809 0.626395ZM20.9571 5.04376C21.7704 5.85702 23.19 5.85702 24.0041 5.04376C24.8435 4.20358 24.8435 2.83693 24.0041 1.99676C23.5954 1.59139 23.0563 1.36599 22.4811 1.36599C21.905 1.36599 21.3642 1.59139 20.9571 1.99676C20.117 2.83609 20.117 4.20274 20.9571 5.04376ZM4.21027 17.0644L8.39066 21.2398L9.33206 20.2973L7.70991 18.6771L9.15722 17.228L8.36218 16.4339L6.91487 17.883L5.94671 16.9159L7.63737 15.2233L6.84233 14.4292L4.21027 17.0644ZM7.56864 13.702L11.749 17.8774L12.6904 16.9349L11.1837 15.43L11.7036 14.9095L14.0097 15.6141L15.0663 14.5562L12.4476 13.8305C12.565 13.5171 12.5981 13.2021 12.547 12.8852C12.4913 12.5393 12.3031 12.2062 11.9826 11.886C11.6534 11.5572 11.3223 11.3716 10.989 11.3291C10.6515 11.2823 10.3226 11.3423 10.0023 11.5091C9.67775 11.6716 9.36817 11.9003 9.07359 12.1953L7.56864 13.702ZM11.4961 9.76986L15.6765 13.9453L18.3534 11.2652L17.5584 10.4711L15.8229 12.2087L14.8611 11.2481L16.2828 9.82468L15.4942 9.03699L14.0725 10.4604L13.2326 9.62144L14.904 7.948L14.109 7.1539L11.4961 9.76986ZM15.0046 6.25723L19.185 10.4327L21.8619 7.75259L21.0668 6.95849L19.3313 8.69604L18.3696 7.73544L19.7913 6.31205L19.0026 5.52436L17.5809 6.94774L16.741 6.10881L18.4125 4.43537L17.6174 3.64127L15.0046 6.25723Z" fill="#205E1C"/>
</svg>
