<svg width="1250" height="294" viewBox="0 60 1250 294" fill="none" xmlns="http://www.w3.org/2000/svg">
    <path opacity="0.2" d="M-316.843 3.54348C-320.317 3.54348 -314.963 2.97931 -313.884 3.00058C-302.493 3.22493 -288.972 16.2727 -280.885 22.7536C-230.647 63.0108 -185.755 112.503 -147.403 164.052C-122.534 197.478 -115.233 223.873 -115.503 264.638C-115.677 290.782 -144.333 296.776 -163.816 285.734C-230.728 247.813 -250.994 180.239 -232.961 107.436C-222.866 66.6793 -206.651 32.7569 -162.594 21.8871C-115.866 10.3582 -64.456 49.39 -25.599 70.6144C17.9661 94.4103 53.3335 129.911 95.7961 155.289C129.671 175.534 162.555 188.104 200.967 196.462C268.119 211.072 340.236 199.361 397.781 161.899C436.105 136.95 476.441 121.977 520.259 109.501C580.773 92.2699 637.943 74.9001 701.085 69.704C741.369 66.3891 781.83 65.2453 822.242 65.1003C878.253 64.8993 931.847 80.617 984.661 97.7816C1106.2 137.281 1222.29 192.738 1340 242.225" stroke="#FAB03B" stroke-width="5" stroke-linecap="round" stroke-linejoin="round"/>
</svg>
