<svg xmlns="http://www.w3.org/2000/svg" width="97" height="25" viewBox="0 0 97 25" fill="none">
  <mask id="mask0_2514_13638" style="mask-type:luminance" maskUnits="userSpaceOnUse" x="0" y="0" width="98" height="25">
    <path d="M97.0293 0.0124512H0.0292969V24.6609H97.0293V0.0124512Z" fill="white"/>
  </mask>
  <g mask="url(#mask0_2514_13638)">
    <path d="M25.5059 8.76245H35.3191V10.6765H31.4693V21.3406H29.3557V10.6375H25.5059V8.76245ZM34.9039 12.2H36.7156V13.9578H36.7533C36.8288 13.7234 36.942 13.489 37.093 13.2546C37.244 13.0203 37.4705 12.7859 37.6969 12.6296C37.9234 12.4343 38.1876 12.2781 38.4518 12.1609C38.716 12.0437 39.0179 11.9656 39.3199 11.9656C39.5463 11.9656 39.6973 11.9656 39.7728 11.9656C39.8483 11.9656 39.9615 12.0046 40.037 12.0046V13.9187C39.886 13.8796 39.7728 13.8796 39.6218 13.8406C39.4708 13.8406 39.3576 13.8015 39.2066 13.8015C38.867 13.8015 38.565 13.8796 38.3008 13.9968C37.9989 14.114 37.7724 14.3484 37.5459 14.5828C37.3195 14.8562 37.1685 15.1687 37.0175 15.5593C36.9043 15.95 36.8288 16.3796 36.8288 16.8875V21.2234H34.9039V12.2ZM48.9444 21.3015H47.0572V20.0515H47.0195C46.793 20.5203 46.4156 20.8718 45.9627 21.1453C45.5097 21.4187 45.0191 21.575 44.5284 21.575C43.3584 21.575 42.528 21.3015 42.0374 20.6765C41.509 20.0906 41.2825 19.1921 41.2825 17.9812V12.2H43.2074V17.7859C43.2074 18.5671 43.3584 19.1531 43.6603 19.4656C43.9623 19.7781 44.3775 19.9734 44.9059 19.9734C45.321 19.9734 45.6607 19.8953 45.9249 19.7781C46.1891 19.6609 46.4156 19.4656 46.5666 19.2703C46.7553 19.075 46.8685 18.8015 46.944 18.489C47.0195 18.1765 47.0572 17.864 47.0572 17.5125V12.239H48.9821V21.3015H48.9444ZM52.2658 18.3718C52.3413 18.9578 52.53 19.3484 52.9074 19.6218C53.2848 19.8562 53.7378 19.9734 54.2662 19.9734C54.4549 19.9734 54.6436 19.9734 54.8701 19.9343C55.0965 19.8953 55.323 19.8562 55.5117 19.7781C55.7004 19.7 55.8891 19.5828 56.0024 19.4265C56.1156 19.2703 56.1911 19.075 56.1911 18.8015C56.1911 18.5281 56.0778 18.3328 55.9269 18.1765C55.7382 18.0203 55.5494 17.9031 55.2852 17.7859C55.021 17.7078 54.7191 17.5906 54.3794 17.5125C54.0397 17.4343 53.7 17.3562 53.3603 17.2781C52.9829 17.2 52.6432 17.0828 52.3035 16.9656C51.9638 16.8484 51.6619 16.6921 51.3977 16.4968C51.1335 16.3015 50.907 16.0281 50.7561 15.7156C50.6051 15.4031 50.5296 15.0125 50.5296 14.5828C50.5296 14.075 50.6428 13.6843 50.8693 13.3328C51.0957 12.9812 51.3977 12.7468 51.7374 12.5125C52.1148 12.3171 52.4922 12.1609 52.9452 12.0828C53.3981 12.0046 53.8133 11.9656 54.1907 11.9656C54.6436 11.9656 55.0965 12.0046 55.4739 12.1218C55.8891 12.2 56.2666 12.3953 56.6062 12.5906C56.9459 12.825 57.2101 13.0984 57.4366 13.45C57.6631 13.8015 57.814 14.2312 57.8518 14.739H55.8136C55.7382 14.2703 55.5117 13.9187 55.172 13.7625C54.8323 13.6062 54.4549 13.5281 54.0397 13.5281C53.8887 13.5281 53.7378 13.5281 53.5491 13.5671C53.3603 13.6062 53.1716 13.6453 53.0206 13.6843C52.8697 13.7625 52.7187 13.8406 52.6055 13.9578C52.4922 14.075 52.4168 14.2312 52.4168 14.4265C52.4168 14.6609 52.4922 14.8562 52.681 15.0125C52.8319 15.1687 53.0584 15.2859 53.3226 15.4031C53.5868 15.4812 53.8887 15.5984 54.2284 15.6765C54.5681 15.7546 54.9078 15.8328 55.2852 15.9109C55.6249 15.989 55.9646 16.1062 56.3043 16.2234C56.644 16.3406 56.9459 16.4968 57.2101 16.6921C57.4743 16.8875 57.7008 17.1609 57.8518 17.4343C58.0027 17.7078 58.116 18.0984 58.116 18.5671C58.116 19.114 58.0027 19.5437 57.7385 19.9343C57.5121 20.325 57.1724 20.5984 56.8327 20.8328C56.4553 21.0671 56.0401 21.2234 55.5494 21.3406C55.0965 21.4578 54.6436 21.4968 54.1529 21.4968C53.5868 21.4968 53.0961 21.4187 52.6055 21.3015C52.1526 21.1843 51.7374 20.989 51.3977 20.7156C51.058 20.4421 50.7938 20.1296 50.5673 19.739C50.3786 19.3484 50.2654 18.8796 50.2654 18.3328L52.2658 18.3718ZM58.6444 12.2H60.1164V9.46558H62.0413V12.2H63.7775V13.6843H62.0413V18.5281C62.0413 18.7234 62.0413 18.9187 62.079 19.075C62.079 19.2312 62.1545 19.3484 62.1922 19.4656C62.2677 19.5828 62.3432 19.6609 62.4564 19.7C62.5697 19.739 62.7584 19.7781 62.9848 19.7781C63.1358 19.7781 63.249 19.7781 63.4 19.7781C63.551 19.7781 63.6642 19.739 63.8152 19.7V21.2625C63.5887 21.3015 63.4 21.3015 63.1736 21.3406C62.9848 21.3796 62.7584 21.3796 62.5319 21.3796C62.0035 21.3796 61.6261 21.3406 61.2864 21.2234C60.9845 21.1453 60.7203 20.989 60.5693 20.7937C60.3806 20.5984 60.2673 20.364 60.1918 20.0515C60.1164 19.7781 60.0786 19.4265 60.0786 19.0359V13.7234H58.6066L58.6444 12.2ZM65.174 12.2H67.0234V13.45H67.0611C67.3253 12.9031 67.7027 12.5515 68.1934 12.3171C68.6841 12.0828 69.2125 11.9656 69.7786 11.9656C70.458 11.9656 71.0619 12.0828 71.5903 12.3562C72.1187 12.5906 72.5339 12.9421 72.8736 13.4109C73.2133 13.8406 73.4775 14.3875 73.6284 14.9343C73.8171 15.5203 73.8926 16.1453 73.8926 16.8093C73.8926 17.4343 73.8171 18.0203 73.6662 18.5671C73.5152 19.1531 73.2887 19.6609 72.9868 20.0906C72.6848 20.5203 72.2697 20.8718 71.8168 21.1453C71.3261 21.4187 70.7977 21.5359 70.1183 21.5359C69.8541 21.5359 69.5522 21.4968 69.288 21.4578C69.0238 21.4187 68.7218 21.3015 68.4576 21.1843C68.1934 21.0671 67.9669 20.9109 67.7405 20.7156C67.514 20.5203 67.3253 20.325 67.1743 20.0906H67.1366V24.6218H65.2117V12.2H65.174ZM71.93 16.7703C71.93 16.3796 71.8922 15.95 71.779 15.5593C71.6658 15.1687 71.5148 14.8171 71.3261 14.5437C71.1374 14.2312 70.8732 13.9968 70.5712 13.8406C70.2693 13.6453 69.9296 13.5671 69.5144 13.5671C68.6841 13.5671 68.0802 13.8406 67.665 14.4265C67.2498 15.0125 67.0611 15.7937 67.0611 16.7703C67.0611 17.239 67.0989 17.6687 67.2121 18.0593C67.3253 18.45 67.4763 18.8015 67.7027 19.075C67.9292 19.3484 68.1557 19.5828 68.4576 19.739C68.7596 19.8953 69.0992 19.9734 69.5144 19.9734C69.9673 19.9734 70.3448 19.8953 70.6467 19.7C70.9487 19.5046 71.2129 19.2703 71.4016 18.9578C71.5903 18.6453 71.7413 18.3328 71.8168 17.9421C71.8922 17.5515 71.93 17.1609 71.93 16.7703ZM75.3269 8.76245H77.2518V10.6765H75.3269V8.76245ZM75.3269 12.2H77.2518V21.3015H75.3269V12.2ZM78.988 8.76245H80.9129V21.3015H78.988V8.76245ZM86.8763 21.5359C86.1592 21.5359 85.5553 21.4187 84.9891 21.1843C84.423 20.95 83.9701 20.5984 83.5926 20.2078C83.2152 19.7781 82.9133 19.2703 82.7245 18.6843C82.5358 18.0984 82.4226 17.4343 82.4226 16.7703C82.4226 16.0671 82.5358 15.4421 82.7245 14.8562C82.9133 14.2703 83.2152 13.7625 83.5926 13.3328C83.9701 12.9031 84.423 12.5906 84.9891 12.3562C85.5553 12.1218 86.1592 12.0046 86.8763 12.0046C87.5934 12.0046 88.1973 12.1218 88.7634 12.3562C89.3296 12.5906 89.7825 12.9421 90.1599 13.3328C90.5374 13.7625 90.8393 14.2703 91.028 14.8562C91.2168 15.4421 91.33 16.0671 91.33 16.7703C91.33 17.4734 91.2168 18.0984 91.028 18.6843C90.8393 19.2703 90.5374 19.7781 90.1599 20.2078C89.7825 20.6375 89.3296 20.95 88.7634 21.1843C88.1973 21.4187 87.5934 21.5359 86.8763 21.5359ZM86.8763 19.9734C87.2915 19.9734 87.6689 19.8953 88.0086 19.7C88.3105 19.5046 88.5747 19.2703 88.8012 18.9578C88.9899 18.6453 89.1409 18.2937 89.2541 17.9421C89.3296 17.5515 89.4051 17.1609 89.4051 16.7703C89.4051 16.3796 89.3673 15.989 89.2541 15.5984C89.1786 15.2078 88.9899 14.8562 88.8012 14.5828C88.6125 14.2703 88.3483 14.0359 88.0086 13.8406C87.7066 13.6453 87.3292 13.5671 86.8763 13.5671C86.4611 13.5671 86.0837 13.6453 85.744 13.8406C85.442 14.0359 85.1778 14.2703 84.9514 14.5828C84.7627 14.8953 84.6117 15.2078 84.4985 15.5984C84.423 15.989 84.3475 16.3796 84.3475 16.7703C84.3475 17.1609 84.3852 17.5515 84.4985 17.9421C84.574 18.3328 84.7627 18.6843 84.9514 18.9578C85.1401 19.2703 85.4043 19.5046 85.744 19.7C86.0837 19.8953 86.4611 19.9734 86.8763 19.9734ZM91.8584 12.2H93.3304V9.46558H95.2553V12.2H96.9915V13.6843H95.2553V18.5281C95.2553 18.7234 95.2553 18.9187 95.293 19.075C95.293 19.2312 95.3685 19.3484 95.4062 19.4656C95.4817 19.5828 95.5572 19.6609 95.6704 19.7C95.7837 19.739 95.9724 19.7781 96.1989 19.7781C96.3498 19.7781 96.4631 19.7781 96.614 19.7781C96.765 19.7781 96.8782 19.739 97.0292 19.7V21.2625C96.8027 21.3015 96.614 21.3015 96.3876 21.3406C96.1989 21.3796 95.9724 21.3796 95.7459 21.3796C95.2175 21.3796 94.8401 21.3406 94.5004 21.2234C94.1985 21.1453 93.9343 20.989 93.7833 20.7937C93.5946 20.5984 93.4813 20.364 93.4059 20.0515C93.3304 19.7781 93.2926 19.4265 93.2926 19.0359V13.7234H91.8206L91.8584 12.2Z" fill="#191919"/>
    <path d="M23.2414 8.76245H14.3717L11.6542 0.0124512L8.89895 8.76245L0.0292969 8.72339L7.2005 14.114L4.44525 22.825L11.6165 17.4343L18.7877 22.825L16.0324 14.114L23.2414 8.76245Z" fill="#04DA8D"/>
    <path d="M16.7119 16.1062L16.108 14.114L11.6543 17.4343L16.7119 16.1062Z" fill="#005128"/>
  </g>
</svg>