<svg width="24" height="25" viewBox="0 0 24 25" fill="none" xmlns="http://www.w3.org/2000/svg">
<g clipPath="url(#clip0_63_3300)">
<path d="M1.29305 12.8895L0.854075 15.1772L3.33762 15.927L0.584717 19.6675L3.61861 20.8081L8.13509 18.6298L8.2328 14.3721L10.0975 12.4729L8.84446 10.0274L6.82869 9.4868L4.69541 10.3632L4.14887 11.4314L5.06163 11.6499L1.29305 12.8895ZM11.8409 0.270935L9.87959 2.66501L9.66165 6.91252L10.942 8.19962L10.8058 11.5462L11.9771 11.2887L13.6115 10.9284L13.3936 12.3442L14.456 13.3996L14.5649 14.5066L14.7011 15.7679L11.5412 15.7164L12.4674 17.8273L9.96125 20.3501L13.5025 21.2253L15.3004 20.6333L14.6466 21.5342L12.5764 21.8431L9.41644 24.7521L12.8215 24.8807L13.8021 23.6451L16.1448 23.9282L20.4488 23.4134L22.3556 22.8471L22.8732 21.7144L21.0481 21.354L23.309 19.0887L22.9277 17.4412L21.8925 16.9263L20.013 17.3124L20.6122 16.154L19.0596 12.6273L17.752 12.1124L16.853 9.30648L15.2186 7.9936L13.8294 7.83913L15.2459 7.16982L16.5534 4.08073L16.2265 2.92231L12.876 3.66885V2.48469L14.7555 0.528272L11.8409 0.270935Z" fill="#205E1C"/>
</g>
<defs>
<clipPath id="clip0_63_3300">
<rect width="23" height="25" fill="white" transform="translate(0.333252)"/>
</clipPath>
</defs>
</svg>
